<?xml version="1.0" standalone="no"?>
<!DOCTYPE svg PUBLIC "-//W3C//DTD SVG 20010904//EN"
 "http://www.w3.org/TR/2001/REC-SVG-20010904/DTD/svg10.dtd">
<svg version="1.0" xmlns="http://www.w3.org/2000/svg"
 width="296.000000pt" height="296.000000pt" viewBox="0 0 296.000000 296.000000"
 preserveAspectRatio="xMidYMid meet">
<metadata>
Created by potrace 1.11, written by Peter Selinger 2001-2013
</metadata>
<g transform="translate(0.000000,296.000000) scale(0.100000,-0.100000)"
fill="#000000" stroke="none">
<path d="M394 2945 c-189 -41 -339 -193 -380 -384 -20 -98 -20 -2064 0 -2162
41 -193 192 -344 385 -385 98 -20 2064 -20 2162 0 193 41 344 192 385 385 20
98 20 2064 0 2162 -41 193 -192 344 -385 385 -94 20 -2075 19 -2167 -1z m1648
-381 c35 -18 65 -58 79 -103 7 -24 9 -239 7 -641 l-3 -605 -108 -185 c-60
-102 -123 -200 -140 -218 -78 -81 -217 -56 -273 50 -8 15 -14 49 -14 75 0 42
12 69 95 217 l94 168 3 572 c3 550 4 572 23 605 48 81 149 109 237 65z m-398
-188 c18 -7 42 -26 54 -41 22 -28 22 -30 22 -506 l0 -479 -87 -147 c-47 -82
-92 -162 -100 -180 -27 -65 -13 -158 33 -220 l24 -32 -46 -75 c-33 -55 -57
-83 -88 -101 -74 -43 -154 -29 -214 39 -68 78 -60 126 57 332 l91 162 0 554
c0 572 1 592 41 649 38 54 139 76 213 45z m-412 -191 c15 -3 43 -19 63 -36
l35 -31 0 -483 0 -483 -94 -162 c-54 -93 -97 -179 -101 -202 -10 -59 2 -120
35 -172 l30 -46 -46 -74 c-55 -91 -96 -120 -169 -120 -61 0 -105 22 -142 71
-24 31 -28 46 -28 97 0 59 4 67 90 216 l90 155 5 575 c5 557 6 576 26 614 25
49 61 77 111 86 38 6 46 6 95 -5z"/>
</g>
</svg>
